{"title":"Buck And The Preacher  (Western Comedy 1972)  Sidney Poitier, Ha","uid":9392699,"size":470869220,"categoryP":"video","categoryS":"movies","magnet":"?xt=urn:btih:edc84227655b5c40098c571d4102ebbd3c0b87c8&amp;dn=Buck+And+The+Preacher++%28Western+Comedy+1972%29++Sidney+Poitier%2C+Ha&amp;tr=udp%3A%2F%2Ftracker.openbittorrent.com%3A80&amp;tr=udp%3A%2F%2Fopen.demonii.com%3A1337&amp;tr=udp%3A%2F%2Ftracker.coppersurfer.tk%3A6969&amp;tr=udp%3A%2F%2Fexodus.desync.com%3A6969","seeders":8,"leechers":1,"uploader":"BurtonW","files":1,"time":1387915155,"description":" &lt;a href=&quot;http://www.imdb.com/title/tt0068323/?ref_=fn_al_tt_1&quot; rel=&quot;nofollow&quot; target=&quot;_NEW&quot;&gt;http://www.imdb.com/title/tt0068323/?ref_=fn_al_tt_1&lt;/a&gt;\n\n\nA good quality film.\n\n\nEnglish subtitles!\n\n\nStoryline:\n\nA wagon master and a con-man preacher help freed slaves dogged by cheap-labor agents out West.\n\n\nTechnical info:\n\n\nGeneral:\n\nComplete name                  : Buck And The Preacher  (Western Comedy 1972)  Sidney Poitier, Harry Belafonte &amp; Ruby Dee.mp4\n\nFormat                         : MPEG-4\nFormat profile                 : Base Media / Version 2\nCodec ID                       : mp42\nFile size                      : 449 MiB\nDuration                       : 1h 38mn\nOverall bit rate mode          : Variable\nOverall bit rate               : 635 Kbps\nEncoded date                   : UTC 2013-09-14 17:54:36\nTagged date                    : UTC 2013-09-14 19:32:08\n\n\nVideo:\n\nID                             : 1\nFormat                         : AVC\nFormat/Info                    : Advanced Video Codec\nFormat profile                 : &lt;a class=&quot;__cf_email__&quot; href=&quot;/cdn-cgi/l/email-protection&quot; data-cfemail=&quot;7f321e16113f334b514f&quot;&gt;[email&amp;#160;protected]&lt;/a&gt;&lt;script cf-hash='f9e31' type=&quot;text/javascript&quot;&gt;\n/* &lt;![CDATA[ */!function(){try{var t=&quot;currentScript&quot;in document?document.currentScript:function(){for(var t=document.getElementsByTagName(&quot;script&quot;),e=t.length;e--;)if(t[e].getAttribute(&quot;cf-hash&quot;))return t[e]}();if(t&amp;&amp;t.previousSibling){var e,r,n,i,c=t.previousSibling,a=c.getAttribute(&quot;data-cfemail&quot;);if(a){for(e=&quot;&quot;,r=parseInt(a.substr(0,2),16),n=2;a.length-n;n+=2)i=parseInt(a.substr(n,2),16)^r,e+=String.fromCharCode(i);e=document.createTextNode(e),c.parentNode.replaceChild(e,c)}}}catch(u){}}();/* ]]&gt; */&lt;/script&gt;\nFormat settings, CABAC         : Yes\nFormat settings, ReFrames      : 4 frames\nCodec ID                       : avc1\nCodec ID/Info                  : Advanced Video Coding\nDuration                       : 1h 38mn\nBit rate mode                  : Variable\nBit rate                       : 464 Kbps\nWidth                          : 702 pixels\nHeight                         : 552 pixels\nDisplay aspect ratio           : 16:9\nOriginal display aspect ratio  : 16:9\nFrame rate mode                : Constant\nFrame rate                     : 24.000 fps\nColor space                    : YUV\nChroma subsampling             : 4:2:0\nBit depth                      : 8 bits\nScan type                      : Progressive\nBits/(Pixel*Frame)             : 0.050\nStream size                    : 331 MiB (74%)\nWriting library                : x264 core 130 r2273 b3065e6\nEncoding settings              : Deleted\nEncoded date                   : UTC 2013-09-14 17:54:36\nTagged date                    : UTC 2013-09-14 19:32:08\nColor primaries                : BT.601 NTSC\nTransfer characteristics       : BT.709\nMatrix coefficients            : BT.601\n\nAudio:\n\nID                             : 2\nFormat                         : AAC\nFormat/Info                    : Advanced Audio Codec\nFormat profile                 : LC\nCodec ID                       : 40\nDuration                       : 1h 38mn\nBit rate mode                  : Variable\nBit rate                       : 160 Kbps\nMaximum bit rate               : 254 Kbps\nChannel(s)                     : 2 channels\nChannel positions              : Front: L R\nSampling rate                  : 48.0 KHz\nCompression mode               : Lossy\nDelay relative to video        : 83ms\nStream size                    : 113 MiB (25%)\nLanguage                       : English\nEncoded date                   : UTC 2013-09-14 17:54:36\nTagged date                    : UTC 2013-09-14 19:32:07\n\nText:\n\nID                             : 3\nFormat                         : mp4s\nCodec ID                       : E0\nDuration                       : 1h 38mn\nBit rate mode                  : Variable\nBit rate                       : 2 276 bps\nMaximum bit rate               : 4 216 Mbps\nDelay relative to video        : 83ms\nStream size                    : 1.61 MiB (0%)\nLanguage                       : English\nEncoded date                   : UTC 2013-09-14 17:54:36\nTagged date                    : UTC 2013-09-14 19:32:07\n","torrent":{"xt":"urn:btih:edc84227655b5c40098c571d4102ebbd3c0b87c8","amp;dn":"Buck+And+The+Preacher++%28Western+Comedy+1972%29++Sidney+Poitier%2C+Ha","amp;tr":["udp%3A%2F%2Ftracker.openbittorrent.com%3A80","udp%3A%2F%2Fopen.demonii.com%3A1337","udp%3A%2F%2Ftracker.coppersurfer.tk%3A6969","udp%3A%2F%2Fexodus.desync.com%3A6969"],"infoHash":"edc84227655b5c40098c571d4102ebbd3c0b87c8","infoHashBuffer":{"type":"Buffer","data":[237,200,66,39,101,91,92,64,9,140,87,29,65,2,235,189,60,11,135,200]},"announce":[],"urlList":[]}}